# xmcd
#
# Track frame offsets: 
#        150
#        20775
#        42525
#        52800
#        70125
#        100125
#        112425
#        130025
#        146025
#        162375
#        174450
#        192450
#        203625
#        223425
#
# Disc length: 3437 seconds
#
# Revision: 0
# Processed by: cddbd v1.5.1PL0 Copyright (c) Steve Scherf et al.
# Submitted via: ExactAudioCopy v0.95a3
#
DISCID=de0d6b0e
DTITLE=Various Artist - Zyx Soul Box CD 2
DYEAR=1900
DGENRE=Soul
TTITLE0=Isaac Hayes - Theme from 'Shaft'
TTITLE1=The Staple Singers - Respect Yourself
TTITLE2=Johnnie Taylor - I Could Never Be President
TTITLE3=The Dramatics - Watcha See is Watcha Get
TTITLE4=Chuck Brooks - Love's Gonna Tear Your Playhouse Down
TTITLE5=Shack - Too Many Lovers
TTITLE6=Rufus Thomas - (I Love You) For Sentimental Reasons
TTITLE7=Soul Children - Hear Say
TTITLE8=The Temprees - Dedicated To The One I Love
TTITLE9=Judy Clay and William Bell - Private Number
TTITLE10=The Mad Lads - Let Me Repair Your Heart
TTITLE11=Jean Knight - You Think You're Hot Stuff
TTITLE12=Fat Larry's Band - Peaceful Journey
TTITLE13=Band of Gold - Medley
EXTD=
EXTT0=
EXTT1=
EXTT2=
EXTT3=
EXTT4=
EXTT5=
EXTT6=
EXTT7=
EXTT8=
EXTT9=
EXTT10=
EXTT11=
EXTT12=
EXTT13=
PLAYORDER=
